{"title":"Enemy 2013 HDRip x264 AC3-MiLLENiUM","uid":9927775,"size":801371446,"categoryP":"video","categoryS":"movies","magnet":"?xt=urn:btih:dc41c973bcb91f2a71c66df1bb4a6eb01b3f6003&amp;dn=Enemy+2013+HDRip+x264+AC3-MiLLENiUM&amp;tr=udp%3A%2F%2Ftracker.openbittorrent.com%3A80&amp;tr=udp%3A%2F%2Fopen.demonii.com%3A1337&amp;tr=udp%3A%2F%2Ftracker.coppersurfer.tk%3A6969&amp;tr=udp%3A%2F%2Fexodus.desync.com%3A6969","seeders":3,"leechers":0,"uploader":"HeroMaster","files":-1,"time":1397081632,"description":"::::::::::: MiLLENiUM PRESENTS ::::::::::\n\n\n:::: Enemy 2013 HDRip x264 AC3-MiLLENiUM ::::\n\n\n::Information::\n\n\nSource: XYZ [THANKS]\nIMDb Information: http://www.imdb.com/title/tt2316411/\nSample Included: yes\n\nGeneral\nComplete name: Enemy 2013 HDRip x264 AC3-MiLLENiUM.mkv\nFormat: Matroska\nFormat version: Version 2\nFile size: 739 MiB\nDuration: 1h 27mn\nOverall bit rate mode: Variable\nOverall bit rate: 1 177 Kbps\nEncoded date: UTC 2014-04-09 16:21:54\nWriting application: mkvmerge v6.8.0 ('Theme for Great Cities') \n32bit built on Mar 2 2014 21:27:07\nWriting library: libebml v1.3.0 + libmatroska v1.4.1\n\nVideo\nID: 1\nFormat: AVC\nFormat/Info: Advanced Video Codec\nFormat profile: &lt;a class=&quot;__cf_email__&quot; href=&quot;/cdn-cgi/l/email-protection&quot; data-cfemail=&quot;5e163739361e126a706f&quot;&gt;[email&amp;#160;protected]&lt;/a&gt;&lt;script cf-hash='f9e31' type=&quot;text/javascript&quot;&gt;\n/* &lt;![CDATA[ */!function(){try{var t=&quot;currentScript&quot;in document?document.currentScript:function(){for(var t=document.getElementsByTagName(&quot;script&quot;),e=t.length;e--;)if(t[e].getAttribute(&quot;cf-hash&quot;))return t[e]}();if(t&amp;&amp;t.previousSibling){var e,r,n,i,c=t.previousSibling,a=c.getAttribute(&quot;data-cfemail&quot;);if(a){for(e=&quot;&quot;,r=parseInt(a.substr(0,2),16),n=2;a.length-n;n+=2)i=parseInt(a.substr(n,2),16)^r,e+=String.fromCharCode(i);e=document.createTextNode(e),c.parentNode.replaceChild(e,c)}}}catch(u){}}();/* ]]&gt; */&lt;/script&gt;\nFormat settings, CABAC: Yes\nFormat settings, ReFrames: 3 frames\nCodec ID: V_MPEG4/ISO/AVC\nDuration: 1h 27mn\nBit rate mode: Variable\nBit rate: 930 Kbps\nMaximum bit rate: 40.0 Mbps\nWidth: 720 pixels\nHeight: 304 pixels\nDisplay aspect ratio: 2.35:1\nFrame rate mode: Constant\nFrame rate: 30.000 fps\nColor space: YUV\nChroma subsampling: 4:2:0\nBit depth: 8 bits\nScan type: Progressive\nBits/(Pixel*Frame): 0.142\nStream size: 584 MiB (79%)\nWriting library: x264 core 142 r2409 d6b4e63\n\nAudio\nID: 2\nFormat: AC-3\nFormat/Info: Audio Coding 3\nMode extension: CM (complete main)\nFormat settings, Endianness: Big\nCodec ID: A_AC3\nDuration: 1h 27mn\nBit rate mode: Constant\nBit rate: 224 Kbps\nChannel(s): 2 channels\nChannel positions: Front: L R\nSampling rate: 44.1 KHz\nBit depth: 16 bits\nCompression mode: Lossy\nStream size: 141 MiB (19%)\nLanguage: English\nDefault: Yes\nForced: No \n\n\n::Plot::\n\n\nA man seeks out his exact look-alike after spotting him in a movie.\n\n\n::Greetz and Respect::\n\n\nALL CREDIT Goes to MiLLENiUM for Encoding and mbnut for Distribution.\n\n\n::Poster::\n\n &lt;a href=&quot;\nhttp://i.imgur.com/UFAlbUp.jpg&quot; rel=&quot;nofollow&quot; target=&quot;_NEW&quot;&gt;\nhttp://i.imgur.com/UFAlbUp.jpg&lt;/a&gt;\n\n\n::Screenshots::\n\n &lt;a href=&quot;\nhttp://i.imgur.com/wum65Eu.jpg&quot; rel=&quot;nofollow&quot; target=&quot;_NEW&quot;&gt;\nhttp://i.imgur.com/wum65Eu.jpg&lt;/a&gt;\n\n\nSEED AND ENJOY!","torrent":{"xt":"urn:btih:dc41c973bcb91f2a71c66df1bb4a6eb01b3f6003","amp;dn":"Enemy+2013+HDRip+x264+AC3-MiLLENiUM","amp;tr":["udp%3A%2F%2Ftracker.openbittorrent.com%3A80","udp%3A%2F%2Fopen.demonii.com%3A1337","udp%3A%2F%2Ftracker.coppersurfer.tk%3A6969","udp%3A%2F%2Fexodus.desync.com%3A6969"],"infoHash":"dc41c973bcb91f2a71c66df1bb4a6eb01b3f6003","infoHashBuffer":{"type":"Buffer","data":[220,65,201,115,188,185,31,42,113,198,109,241,187,74,110,176,27,63,96,3]},"announce":[],"urlList":[]}}